PathFileType	4	(X/Y/Z)	/Users/itak/Documents/Research/Walk-IL/dataset/trc/00151_00007.trc
DataRate	CameraRate	NumFrames	NumMarkers	Units	OrigDataRate	OrigDataStartFrame	OrigNumFrames
100.000000	100.000000	4	53	mm	100.000000	204	544
Frame#	Time	RPSI			LPSI			L3			STRN			T10			C7			CLAV			RBAK			LBAK			LSHO			LUPA			LAEL			LAOL			LWTS			LWPS			LFRA			LIFD			LHPS			LHTS			RSHO			RUPA			RAEL			RAOL			RWTS			RWPS			RFRA			RIFD			RHTS			RHPS			RBHD			LFHD			RFHD			LBHD			LHIP			RHIP			RASI			LASI			LKNE			LTHI			LANK			LTIP			LTOE			LMT1			LMT5			LHEE			RKNE			RTHI			RANK			RTIP			RTOE			RMT1			RMT5			RHEE			
		X1	Y1	Z1	X2	Y2	Z2	X3	Y3	Z3	X4	Y4	Z4	X5	Y5	Z5	X6	Y6	Z6	X7	Y7	Z7	X8	Y8	Z8	X9	Y9	Z9	X10	Y10	Z10	X11	Y11	Z11	X12	Y12	Z12	X13	Y13	Z13	X14	Y14	Z14	X15	Y15	Z15	X16	Y16	Z16	X17	Y17	Z17	X18	Y18	Z18	X19	Y19	Z19	X20	Y20	Z20	X21	Y21	Z21	X22	Y22	Z22	X23	Y23	Z23	X24	Y24	Z24	X25	Y25	Z25	X26	Y26	Z26	X27	Y27	Z27	X28	Y28	Z28	X29	Y29	Z29	X30	Y30	Z30	X31	Y31	Z31	X32	Y32	Z32	X33	Y33	Z33	X34	Y34	Z34	X35	Y35	Z35	X36	Y36	Z36	X37	Y37	Z37	X38	Y38	Z38	X39	Y39	Z39	X40	Y40	Z40	X41	Y41	Z41	X42	Y42	Z42	X43	Y43	Z43	X44	Y44	Z44	X45	Y45	Z45	X46	Y46	Z46	X47	Y47	Z47	X48	Y48	Z48	X49	Y49	Z49	X50	Y50	Z50	X51	Y51	Z51	X52	Y52	Z52	X53	Y53	Z53	

205	2.04	-1045.985961914062	1102.351806640625	-549.2781982421875	-1044.116943359375	1101.9697265625	-685.8883056640625	-1048.456176757812	1142.723876953125	-623.5169067382812	-805.1906127929688	1311.23486328125	-619.047607421875	-1062.148681640625	1298.062255859375	-633.8238525390625	-981.8848876953125	1582.32568359375	-645.3562622070312	-820.4544067382812	1449.7890625	-622.3528442382812	-1070.196166992188	1407.597900390625	-563.1078491210938	-980.9622802734375	1562.193725585938	-747.91552734375	-891.795654296875	1533.308227539062	-808.1956176757812	-923.1827392578125	1404.470336914062	-879.9187622070312	-943.2044067382812	1185.288452148438	-899.9666137695312	-1014.091857910156	1184.822509765625	-849.2988891601562	-895.9485473632812	914.1817016601562	-847.9253540039062	-976.0534057617188	903.4351196289062	-882.516357421875	-946.46826171875	1067.827758789062	-902.6341552734375	-919.7427368164062	723.0369262695312	-824.1012573242188	-961.3959350585938	824.2372436523438	-879.4295654296875	-895.8663330078125	824.3721923828125	-856.419189453125	-946.1526489257812	1554.8896484375	-458.7807006835938	-979.0154418945312	1484.078491210938	-398.3222045898438	-1032.73193359375	1193.604858398438	-383.9981079101562	-1024.93603515625	1192.302612304688	-480.7069091796875	-921.49365234375	934.5477905273438	-377.8171997070312	-1000.573486328125	928.0996704101562	-356.8179626464844	-1021.363403320312	1118.692749023438	-365.5980224609375	-923.0415649414062	737.4563598632812	-392.4141540527344	-907.9639282226562	823.7327880859375	-368.4151611328125	-977.559814453125	824.8410034179688	-347.475830078125	-939.428466796875	1736.032104492188	-556.0260620117188	-760.53662109375	1799.954711914062	-666.4190673828125	-774.6049194335938	1796.146606445312	-537.3674926757812	-933.4246826171875	1744.25	-691.3440551757812	-963.3704223632812	1001.272827148438	-792.9654541015625	-920.0242919921875	1005.798889160156	-429.5169982910156	-837.3948974609375	1066.776000976562	-488.6848449707031	-844.9850463867188	1054.254638671875	-753.6294555664062	-1039.36474609375	504.7815856933594	-739.3118896484375	-1024.67236328125	652.4957885742188	-771.6926879882812	-1353.990600585938	84.28685760498047	-718.7999877929688	-1232.822631835938	311.829345703125	-758.3310546875	-1137.58154296875	30.87124061584473	-656.2510375976562	-1213.943969726562	44.86571502685547	-626.3143310546875	-1240.135498046875	38.01536178588867	-739.903076171875	-1419.22802734375	116.758659362793	-660.4194946289062	-768.1864013671875	544.1822509765625	-501.1028137207031	-842.5409545898438	805.4711303710938	-443.79541015625	-772.2619018554688	24.21633338928223	-549.0475463867188	-764.6380615234375	405.9956665039062	-497.3133544921875	-544.9683227539062	63.05815887451172	-577.0980224609375	-594.8179321289062	43.19463729858398	-624.0236206054688	-644.7869873046875	42.0831184387207	-515.4288940429688	-822.5362548828125	25.52005004882812	-602.841064453125	
206	2.05	-1036.460815429688	1103.836547851562	-548.4032592773438	-1034.284912109375	1103.60205078125	-684.9729614257812	-1038.8818359375	1144.172485351562	-622.5081787109375	-796.1300048828125	1313.400024414062	-617.2453002929688	-1053.083129882812	1299.450561523438	-632.62548828125	-973.792724609375	1583.949829101562	-643.8452758789062	-811.8567504882812	1451.934204101562	-620.3977661132812	-1061.624633789062	1408.83154296875	-561.9732666015625	-972.4757690429688	1563.904052734375	-746.4208374023438	-882.9911499023438	1535.432006835938	-806.384033203125	-913.8059692382812	1406.650634765625	-878.4285888671875	-933.7102661132812	1187.555419921875	-898.8202514648438	-1004.736938476562	1187.004150390625	-848.4171142578125	-886.4691772460938	916.3529663085938	-846.8209228515625	-966.3929443359375	905.6082153320312	-881.8314208984375	-936.8761596679688	1070.074462890625	-901.64453125	-910.5267333984375	725.181640625	-822.6389770507812	-951.8421630859375	826.3611450195312	-878.49365234375	-886.4766235351562	826.4473876953125	-855.1231079101562	-938.54052734375	1556.59814453125	-457.242431640625	-971.4599609375	1485.713012695312	-396.8853149414062	-1024.796264648438	1195.108642578125	-383.0895080566406	-1016.447570800781	1193.900268554688	-479.7745971679688	-911.8011474609375	936.8046264648438	-376.46875	-990.9437866210938	929.7024536132812	-355.9571838378906	-1013.126037597656	1120.183715820312	-364.688232421875	-911.5867309570312	739.750244140625	-391.2125549316406	-897.4606323242188	826.1047973632812	-367.0727844238281	-967.1416625976562	826.6099853515625	-346.6248474121094	-931.5653686523438	1738.121704101562	-554.3181762695312	-752.4303588867188	1801.899780273438	-664.3399658203125	-766.7603759765625	1798.072509765625	-535.3148193359375	-925.3819580078125	1746.413818359375	-689.6024169921875	-953.2349853515625	1003.212280273438	-792.0889892578125	-911.0518798828125	1007.070922851562	-428.7173767089844	-828.1544799804688	1068.455810546875	-487.4513854980469	-834.8965454101562	1056.360717773438	-752.30078125	-1026.617797851562	505.3479309082031	-739.6521606445312	-1012.776916503906	653.5922241210938	-771.223876953125	-1350.572631835938	89.83613586425781	-719.5320434570312	-1224.145385742188	315.5462036132812	-758.5460815429688	-1137.574829101562	30.73073959350586	-656.512939453125	-1212.481079101562	45.90898895263672	-626.7167358398438	-1238.939453125	38.5303955078125	-740.0811157226562	-1414.1650390625	125.3244247436523	-661.2408447265625	-762.020263671875	544.1765747070312	-500.7792053222656	-834.3180541992188	805.9685668945312	-442.4366760253906	-771.8709106445312	24.33697509765625	-549.1253662109375	-759.6404418945312	405.9157104492188	-497.1241760253906	-543.9215698242188	61.47339630126953	-577.9398193359375	-594.3992919921875	42.26246643066406	-624.8206787109375	-643.904296875	41.94255828857422	-516.0028686523438	-822.3521728515625	25.85442543029785	-602.5798950195312	
207	2.06	-1026.829711914062	1105.341796875	-547.5313110351562	-1024.357421875	1105.238159179688	-684.0604248046875	-1029.179809570312	1145.595458984375	-621.484130859375	-786.9984130859375	1315.60302734375	-615.4314575195312	-1043.962768554688	1300.782348632812	-631.339599609375	-965.77978515625	1585.559936523438	-642.2533569335938	-803.2857055664062	1454.095947265625	-618.4373779296875	-1053.026489257812	1410.025268554688	-560.6930541992188	-964.1343383789062	1565.59130859375	-744.8350830078125	-874.37255859375	1537.535278320312	-804.5298461914062	-904.6183471679688	1408.7998046875	-876.848388671875	-924.2257080078125	1189.796630859375	-897.647705078125	-995.38330078125	1189.087158203125	-847.508544921875	-876.728515625	918.5397338867188	-845.7124633789062	-956.4479370117188	907.7239990234375	-881.1728515625	-927.1630249023438	1072.292724609375	-900.6455688476562	-900.8517456054688	727.30908203125	-821.2003173828125	-941.9261474609375	828.4427490234375	-877.5946655273438	-876.7286376953125	828.5325927734375	-853.8281860351562	-930.87548828125	1558.291015625	-455.641845703125	-963.8119506835938	1487.337280273438	-395.3665161132812	-1016.798217773438	1196.601318359375	-382.053466796875	-1007.955444335938	1195.494873046875	-478.7213745117188	-902.0001220703125	939.0829467773438	-375.0883483886719	-981.171630859375	931.2981567382812	-355.001220703125	-1004.797546386719	1121.65966796875	-363.6638793945312	-899.8718872070312	742.0726928710938	-389.9777221679688	-886.76318359375	828.5365600585938	-365.6995544433594	-956.5390625	828.3890991210938	-345.7098693847656	-923.7868041992188	1740.232055664062	-552.5708618164062	-744.4290161132812	1803.87548828125	-662.2532958984375	-759.0020751953125	1800.036376953125	-533.2540893554688	-917.4266357421875	1748.5810546875	-687.8401489257812	-942.960693359375	1005.182006835938	-791.1988525390625	-901.9098510742188	1008.364868164062	-427.8734436035156	-818.811279296875	1070.134887695312	-486.2021484375	-824.7716674804688	1058.51025390625	-750.9375	-1013.091064453125	505.7527770996094	-740.2713623046875	-1000.343444824219	654.61376953125	-770.892822265625	-1346.689086914062	95.72110748291016	-720.3455200195312	-1214.797973632812	319.3932189941406	-758.8671875	-1137.680053710938	30.56585884094238	-656.7803955078125	-1210.869262695312	46.99642562866211	-627.1904907226562	-1237.661254882812	39.13720703125	-740.257080078125	-1408.315063476562	134.3213806152344	-662.1556396484375	-756.0538940429688	544.1116333007812	-500.4819946289062	-826.205322265625	806.4708251953125	-441.3849487304688	-771.4909057617188	24.43148422241211	-549.1574096679688	-754.8336181640625	405.7789001464844	-496.8861999511719	-542.9367065429688	59.97808074951172	-578.58203125	-593.9608154296875	41.44622421264648	-625.5045776367188	-643.08203125	41.75103378295898	-516.473388671875	-822.1564331054688	26.20368194580078	-602.26318359375	
208	2.07	-1017.137573242188	1106.853515625	-546.6686401367188	-1014.382568359375	1106.841552734375	-683.1588745117188	-1019.3984375	1146.970336914062	-620.4584350585938	-777.8359985351562	1317.813232421875	-613.6180419921875	-1034.81494140625	1302.034545898438	-629.9967041015625	-957.8532104492188	1587.130126953125	-640.5987548828125	-794.7609252929688	1456.239013671875	-616.4916381835938	-1044.417236328125	1411.159301757812	-559.2890625	-955.9393920898438	1567.231567382812	-743.1796875	-865.9437255859375	1539.591796875	-802.652587890625	-895.6317749023438	1410.89208984375	-875.197998046875	-914.7804565429688	1191.986328125	-896.445556640625	-986.0476684570312	1191.044311523438	-846.5489501953125	-866.7337036132812	920.7244262695312	-844.6107177734375	-946.2409057617188	909.7626342773438	-880.5172119140625	-917.3593139648438	1074.457885742188	-899.6302490234375	-890.7091674804688	729.39892578125	-819.858154296875	-931.6592407226562	830.46826171875	-876.7418212890625	-866.6211547851562	830.6183471679688	-852.57470703125	-923.1649780273438	1559.947631835938	-453.9956665039062	-956.0703125	1488.9267578125	-393.78173828125	-1008.691711425781	1198.05517578125	-380.8800964355469	-999.4448852539062	1197.054809570312	-477.54052734375	-892.0863647460938	941.342529296875	-373.6842956542969	-971.244384765625	932.8645629882812	-353.9304504394531	-996.3353881835938	1123.099365234375	-362.5142211914062	-887.9479370117188	744.3792724609375	-388.7079162597656	-875.8877563476562	830.983154296875	-364.3063049316406	-945.7639770507812	830.1499633789062	-344.7086486816406	-916.1029052734375	1742.307006835938	-550.7911376953125	-736.5469360351562	1805.863525390625	-660.1627807617188	-751.3485107421875	1802.00927734375	-531.189453125	-909.5645751953125	1750.703002929688	-686.0662231445312	-932.5863037109375	1007.123046875	-790.2852172851562	-892.6721801757812	1009.678344726562	-426.9755859375	-809.4064331054688	1071.797485351562	-484.9184875488281	-814.654052734375	1060.662719726562	-749.5255126953125	-998.7868041992188	505.9692077636719	-741.1740112304688	-987.3795776367188	655.520751953125	-770.7083740234375	-1342.28369140625	101.9550476074219	-721.2854614257812	-1204.740966796875	323.3526306152344	-759.31982421875	-1137.883544921875	30.34353446960449	-657.0437622070312	-1209.09912109375	48.15810775756836	-627.7628784179688	-1236.285766601562	39.87665939331055	-740.4400634765625	-1401.612915039062	143.7270050048828	-663.2152099609375	-750.26708984375	544.0127563476562	-500.1839599609375	-818.2612915039062	806.984375	-440.6171264648438	-771.1317749023438	24.49825096130371	-549.1395263671875	-750.2095336914062	405.6016235351562	-496.5865478515625	-542.01953125	58.55746841430664	-579.0130615234375	-593.5116577148438	40.73454666137695	-626.0642700195312	-642.3389282226562	41.49674606323242	-516.82421875	-821.95263671875	26.54923629760742	-601.90576171875	
